<svg width="60" height="60" viewBox="0 0 60 60" fill="none" xmlns="http://www.w3.org/2000/svg">
<path d="M38.7677 31.7463V55.0716C38.7677 56.0691 37.6455 56.6926 36.7727 56.0691L30.0396 51.2063L23.3065 56.0691C22.4337 56.6926 21.3115 56.0691 21.3115 55.0716V31.7463H38.7677Z" fill="white"/>
<path d="M30.0393 38.7374C39.6801 38.7374 47.4955 30.922 47.4955 21.2812C47.4955 11.6403 39.6801 3.82495 30.0393 3.82495C20.3985 3.82495 12.583 11.6403 12.583 21.2812C12.583 30.922 20.3985 38.7374 30.0393 38.7374Z" fill="#FDF0EA"/>
<path d="M31.2862 12.8025L32.5331 16.6678C32.6578 17.1665 33.1565 17.5406 33.78 17.5406H37.77C39.0169 17.5406 39.5156 19.0369 38.5181 19.785L35.2762 22.1541C34.7775 22.5281 34.6528 23.0269 34.7775 23.5256L36.0243 27.3909C36.3984 28.5131 35.0268 29.5106 34.154 28.7625L30.9122 26.3934C30.4134 26.0194 29.9147 26.0194 29.4159 26.3934L26.174 28.7625C25.1765 29.5106 23.9296 28.5131 24.3037 27.3909L25.5506 23.5256C25.6753 23.0269 25.5506 22.4035 25.0518 22.1541L21.81 19.785C20.8125 19.0369 21.3112 17.5406 22.5581 17.5406H26.5481C27.0469 17.5406 27.5456 17.1665 27.795 16.6678L29.0419 12.8025C29.1665 11.6803 30.9122 11.6803 31.2862 12.8025Z" fill="white"/>
<path d="M13.2929 27.5104C13.9831 27.5104 14.5427 26.9508 14.5427 26.2605C14.5427 25.5703 13.9831 25.0107 13.2929 25.0107C12.6026 25.0107 12.043 25.5703 12.043 26.2605C12.043 26.9508 12.6026 27.5104 13.2929 27.5104Z" fill="#06905E"/>
<path fill-rule="evenodd" clip-rule="evenodd" d="M20.2563 37.3074C17.535 35.5865 15.2876 33.1853 13.7543 30.3414C13.4267 29.7348 13.6543 28.9757 14.2621 28.648C14.8699 28.3204 15.629 28.5467 15.9567 29.1545C18.6968 34.2358 24.067 37.6913 30.2401 37.6913C39.1908 37.6913 46.4569 30.4252 46.4569 21.4757C46.4569 17.3824 44.9374 13.6418 42.4311 10.7866C41.9759 10.2689 42.0285 9.47718 42.5462 9.02195C43.0652 8.56672 43.8569 8.61801 44.3121 9.13702C47.2036 12.4325 48.9582 16.7509 48.9582 21.4757C48.9582 28.1366 45.4702 33.9895 40.2238 37.3074V50.2501C40.2238 50.9404 39.6635 51.5007 38.9732 51.5007C38.2828 51.5007 37.7226 50.9404 37.7226 50.2501V38.6356C35.4314 39.6373 32.9001 40.1926 30.2401 40.1926C27.58 40.1926 25.0487 39.6373 22.7576 38.6356V55.2864C22.7576 55.2789 22.7701 55.2688 22.7764 55.2663L29.5085 50.4052C29.9449 50.0888 30.5352 50.0888 30.9717 50.4052C30.9717 50.4052 37.71 55.2714 37.7038 55.2676C37.715 55.2751 37.7226 55.2989 37.7226 55.2864V54.002C37.7226 53.3116 38.2828 52.7514 38.9732 52.7514C39.6635 52.7514 40.2238 53.3116 40.2238 54.002V55.2864C40.2238 57.2799 37.9939 58.548 36.2506 57.3024L36.2456 57.2986L30.2401 52.9615L24.2346 57.2986L24.2296 57.3024C22.4862 58.548 20.2563 57.2799 20.2563 55.2864V37.3074ZM14.0657 22.6475C14.1145 23.3354 13.5955 23.9345 12.9076 23.9832C12.2186 24.0333 11.6195 23.5143 11.5707 22.8252C11.5382 22.3799 11.522 21.9297 11.522 21.4757C11.522 11.1443 19.9099 2.75757 30.2401 2.75757C34.2271 2.75757 37.9252 4.00697 40.9629 6.13553C41.5282 6.53073 41.6658 7.31112 41.2693 7.8764C40.8729 8.44168 40.0925 8.57925 39.5272 8.18405C36.8959 6.34063 33.693 5.25882 30.2401 5.25882C21.2893 5.25882 14.0232 12.525 14.0232 21.4757C14.0232 21.8697 14.0382 22.2598 14.0657 22.6475ZM26.707 16.482C26.7283 16.4645 26.7984 16.4057 26.8459 16.3457C26.8459 16.3457 28.019 12.7076 28.019 12.7126C28.179 11.7558 28.8556 11.1643 29.6885 10.9667C30.8128 10.6991 32.2286 11.2569 32.6763 12.6013L33.9244 16.472C33.9419 16.477 33.9657 16.482 33.9832 16.482H37.9752C39.2158 16.482 40.0687 17.2486 40.3789 18.1791C40.689 19.1095 40.4664 20.2338 39.4684 20.983C39.4684 20.983 36.2281 23.3504 36.2206 23.3567C36.2056 23.3704 36.1943 23.3854 36.1931 23.4042C36.1931 23.4042 37.4187 27.2048 37.4149 27.1936C37.7913 28.3204 37.3123 29.3922 36.4982 29.9862C35.6565 30.6015 34.4972 30.6966 33.5867 29.9474L30.3689 27.5963L30.3651 27.5925L30.3601 27.5963L27.1122 29.9687C25.0887 31.4732 22.5562 29.4672 23.3104 27.2048C23.3104 27.2048 24.5385 23.3992 24.5385 23.3942C24.5397 23.3892 24.5397 23.3842 24.5397 23.3792L21.2618 20.983L21.2556 20.9792C20.2626 20.2339 20.0412 19.1095 20.3514 18.1791C20.6615 17.2486 21.5132 16.482 22.7538 16.482H26.707ZM22.7638 18.9832C22.9489 19.1195 25.9217 21.2906 25.9167 21.2881C26.8684 21.8347 27.211 23.0277 26.9622 24.0245L26.9522 24.0645L25.7178 27.8914C26.2393 27.51 28.8756 25.5828 28.8756 25.5828C29.3684 25.2163 29.8711 25.0588 30.3651 25.0588C30.8579 25.0588 31.3606 25.2163 31.8546 25.5828L35.0125 27.8902L33.7781 24.0645L33.7681 24.0245C33.5255 23.0528 33.7581 22.0773 34.7361 21.3431C34.7361 21.3431 37.6888 19.1858 37.9652 18.9832H33.9832C32.7476 18.9832 31.8009 18.1891 31.5345 17.2111L30.3651 13.5843L29.1558 17.3336L29.1133 17.4187C28.648 18.3479 27.6763 18.9832 26.7471 18.9832H22.7638Z" fill="#06905E"/>
</svg>
