<svg width="60" height="60" viewBox="0 0 60 60" fill="none" xmlns="http://www.w3.org/2000/svg">
<path fill-rule="evenodd" clip-rule="evenodd" d="M30.06 3.88684C21.0805 3.88684 13.8018 11.1655 13.8018 20.145C13.8106 25.8228 16.7758 31.0429 21.5495 33.9731C22.3148 34.4434 23.119 35.4689 23.2953 36.3493L23.7368 38.5592C23.9219 39.4834 24.7411 40.155 25.6828 40.155H34.4372C35.3789 40.155 36.198 39.4834 36.3831 38.5592L36.8246 36.3493C37.0009 35.4689 37.8051 34.4434 38.5705 33.9744C43.3441 31.0429 46.3093 25.8228 46.3181 20.145C46.3181 11.1655 39.0395 3.88684 30.06 3.88684Z" fill="#FDF0EA"/>
<path fill-rule="evenodd" clip-rule="evenodd" d="M23.647 47.9464L36.4634 48.0114L35.3716 54.5622C35.194 55.6265 34.2648 56.4131 33.1867 56.4131H26.9336C25.8556 56.4131 24.9263 55.6265 24.7487 54.5622L23.647 47.9464Z" fill="white"/>
<path fill-rule="evenodd" clip-rule="evenodd" d="M23.1819 45.1575H36.9387C37.2701 45.1575 37.5891 45.2888 37.8229 45.5239C38.058 45.7578 38.1894 46.0767 38.1894 46.4081V47.6587C38.1894 48.3453 37.6253 48.9093 36.9387 48.9093H23.1819C22.8504 48.9093 22.5315 48.778 22.2977 48.5429C22.0625 48.309 21.9312 47.9901 21.9312 47.6587V46.4081C21.9312 45.7215 22.4953 45.1575 23.1819 45.1575Z" fill="#FDF0EA"/>
<path fill-rule="evenodd" clip-rule="evenodd" d="M30.0599 3.88684C26.9521 3.88684 24.4321 11.1655 24.4321 20.145C24.4346 25.8228 25.4613 31.0429 27.1146 33.9731C27.3785 34.4434 27.6574 35.4689 27.7187 36.3493L27.8713 38.5592C27.9351 39.4834 28.2189 40.155 28.5441 40.155H31.5756C31.9008 40.155 32.1847 39.4834 32.2485 38.5592L32.401 36.3493C32.4623 35.4689 32.7412 34.4434 33.0051 33.9744C34.6584 31.0429 35.6852 25.8228 35.6877 20.145C35.6877 11.1655 33.1677 3.88684 30.0599 3.88684Z" fill="white"/>
<path fill-rule="evenodd" clip-rule="evenodd" d="M11.4731 38.6093C10.7927 38.0127 9.91479 37.6538 8.95556 37.6538C6.79698 37.6538 5.04736 39.4735 5.04736 41.7183C5.04736 43.9632 6.79698 45.7829 8.95556 45.7829H14.427C16.1541 45.7829 17.5536 44.3271 17.5536 42.5312C17.5536 40.7353 16.1541 39.2796 14.427 39.2796C13.7592 39.2796 13.1389 39.4972 12.6311 39.8687L11.4731 38.6093Z" fill="#FDF0EA"/>
<path fill-rule="evenodd" clip-rule="evenodd" d="M51.8247 30.1312C52.3012 29.7135 52.9165 29.4622 53.5881 29.4622C55.0989 29.4622 56.3232 30.7366 56.3232 32.3073C56.3232 33.8781 55.0989 35.1525 53.5881 35.1525H49.7574C48.5493 35.1525 47.5688 34.1332 47.5688 32.8764C47.5688 31.6195 48.5493 30.6002 49.7574 30.6002C50.2252 30.6002 50.6591 30.7528 51.0143 31.0129L51.8247 30.1312Z" fill="white"/>
<path fill-rule="evenodd" clip-rule="evenodd" d="M22.7414 50.1212L23.5156 54.7685C23.7932 56.4319 25.2464 57.6637 26.9335 57.6637H33.1866C34.8737 57.6637 36.327 56.4319 36.6046 54.7685L37.3787 50.12C38.5443 49.9099 39.4398 48.8806 39.4398 47.6587V46.4081C39.4398 45.7453 39.1759 45.1087 38.7069 44.6397C38.2379 44.1707 37.6013 43.9069 36.9385 43.9069H36.3132V40.8028C36.966 40.3376 37.4438 39.6335 37.6089 38.8043L38.0516 36.5945C38.1679 36.0129 38.7194 35.3501 39.2247 35.0399C44.366 31.8834 47.5601 26.2618 47.5688 20.1475V20.145C47.5688 10.4751 39.7299 2.63623 30.0601 2.63623C20.3902 2.63623 12.5513 10.4751 12.5513 20.145V20.1462C12.5526 20.714 12.5801 21.2756 12.6351 21.8333C12.7027 22.5199 13.3142 23.0227 14.0021 22.9551C14.6887 22.8876 15.1914 22.2761 15.1239 21.5882C15.0776 21.1117 15.0538 20.6302 15.0526 20.1437C15.0526 13.2553 19.6936 7.45239 26.0193 5.68776C24.3435 8.69926 23.1816 14.0419 23.1816 20.145V20.1462C23.1854 26.0792 24.2985 31.5257 26.0243 34.5884C26.2307 34.9524 26.4233 35.7528 26.4708 36.4356L26.6234 38.6455C26.6296 38.7343 26.6384 38.8206 26.6471 38.9044H25.6829C25.334 38.9044 25.0313 38.6567 24.9638 38.3141L24.5223 36.1042C24.2859 34.9249 23.2292 33.5379 22.2037 32.9076C20.1339 31.637 18.4318 29.8986 17.2087 27.8701C16.8522 27.2785 16.0818 27.0885 15.4915 27.4449C14.9 27.8013 14.7099 28.5704 15.0663 29.162C16.4933 31.5282 18.4793 33.5567 20.8955 35.0399C21.4007 35.3501 21.9523 36.0129 22.0686 36.5945L22.5113 38.8043C22.6764 39.6335 23.1541 40.3376 23.807 40.8028V43.9069H23.1816C21.8097 43.9069 20.6804 45.0362 20.6804 46.4081V47.6587C20.6804 48.3216 20.9443 48.9581 21.4133 49.4271C21.7772 49.791 22.2412 50.0312 22.7414 50.1212ZM34.8375 50.16H34.396C33.7057 50.16 33.1454 49.5997 33.1454 48.9094C33.1454 48.219 33.7057 47.6587 34.396 47.6587H36.9385V46.5082C36.8585 46.4881 36.7447 46.4081 36.9385 46.4081H23.1816V47.5587C23.2617 47.5787 23.3755 47.6587 23.1816 47.6587H30.3777C31.0668 47.6587 31.6284 48.219 31.6284 48.9094C31.6284 49.5997 31.0668 50.16 30.3777 50.16H25.2827L25.983 54.3571C26.0593 54.8198 26.4645 55.1625 26.9335 55.1625H33.1866C33.6556 55.1625 34.0608 54.8198 34.1371 54.3571L34.8375 50.16ZM28.8095 43.9069V41.4056H26.3082V43.9069H28.8095ZM33.812 43.9069V41.4056H31.3107V43.9069H33.812ZM30.0601 5.13748C30.3865 5.13748 30.6779 5.33508 30.9718 5.61772C31.4395 6.0667 31.8635 6.73202 32.2524 7.55744C33.5931 10.3951 34.4373 14.9786 34.4373 20.145C34.4348 25.5677 33.4943 30.5602 31.916 33.3591C31.5921 33.9356 31.2282 35.1837 31.1544 36.263L31.0005 38.4729C30.9918 38.6105 30.963 38.7668 30.9318 38.9044H29.1884C29.1571 38.7668 29.1284 38.6105 29.1196 38.4729L28.9658 36.263C28.892 35.1837 28.5281 33.9356 28.2042 33.3591C26.6259 30.5602 25.6854 25.5677 25.6829 20.145C25.6829 14.9786 26.5271 10.3951 27.8677 7.55744C28.2567 6.73202 28.6806 6.0667 29.1484 5.61772C29.4423 5.33508 29.7337 5.13748 30.0601 5.13748ZM34.1009 5.68776C35.7767 8.69926 36.9385 14.0419 36.9385 20.145V20.1462C36.936 26.0792 35.8217 31.5257 34.0958 34.5884C33.8895 34.9524 33.6969 35.7528 33.6494 36.4356L33.4968 38.6455C33.4905 38.7343 33.4818 38.8206 33.473 38.9044H34.4373C34.7862 38.9044 35.0888 38.6567 35.1564 38.3141L35.5979 36.1042C35.8342 34.9249 36.891 33.5379 37.9153 32.9076C42.3225 30.2025 45.0588 25.3851 45.0676 20.1437C45.0676 13.2565 40.4265 7.45239 34.1009 5.68776Z" fill="#06905E"/>
<path fill-rule="evenodd" clip-rule="evenodd" d="M12.3949 37.7638C12.3636 37.73 12.3323 37.6987 12.2986 37.6687C11.3956 36.8783 10.2288 36.4031 8.9557 36.4031C6.12054 36.4031 3.79688 38.7693 3.79688 41.7182C3.79688 44.6672 6.12054 47.0334 8.9557 47.0334H14.4271C16.8308 47.0334 18.8043 45.0311 18.8043 42.5311C18.8043 40.0311 16.8308 38.0289 14.4271 38.0289C13.8894 38.0289 13.3741 38.1289 12.8976 38.3115L12.3949 37.7638ZM10.6027 39.5096L11.7108 40.7152C12.141 41.1842 12.8551 41.2542 13.3691 40.8791C13.6693 40.6602 14.0332 40.5301 14.4271 40.5301C15.4777 40.5301 16.3031 41.4393 16.3031 42.5311C16.3031 43.6229 15.4777 44.5321 14.4271 44.5321H8.9557C7.47371 44.5321 6.29813 43.259 6.29813 41.7182C6.29813 40.1775 7.47371 38.9043 8.9557 38.9043C9.57726 38.9043 10.1488 39.1307 10.599 39.5071L10.6027 39.5096Z" fill="#06905E"/>
<path fill-rule="evenodd" clip-rule="evenodd" d="M51.0007 29.1908L50.7168 29.4884C50.4129 29.3984 50.0903 29.3496 49.7576 29.3496C47.8717 29.3496 46.3184 30.9154 46.3184 32.8764C46.3184 34.8374 47.8717 36.4031 49.7576 36.4031H53.5883C55.7756 36.4031 57.574 34.5822 57.574 32.3074C57.574 30.0325 55.7756 28.2115 53.5883 28.2115C52.6028 28.2115 51.6986 28.578 51.0007 29.1908ZM52.6966 31.0317C52.9429 30.8329 53.2518 30.7128 53.5883 30.7128C54.4212 30.7128 55.0728 31.4394 55.0728 32.3074C55.0728 33.1753 54.4212 33.9019 53.5883 33.9019H49.7576C49.2261 33.9019 48.8196 33.4292 48.8196 32.8764C48.8196 32.3236 49.2261 31.8509 49.7576 31.8509C49.9514 31.8509 50.1303 31.9146 50.2766 32.0222C50.7906 32.3986 51.5047 32.3274 51.9362 31.8596L52.6928 31.0342L52.6966 31.0317Z" fill="#06905E"/>
<path d="M14.595 26.3586C15.286 26.3586 15.8461 25.7984 15.8461 25.1074C15.8461 24.4164 15.286 23.8563 14.595 23.8563C13.904 23.8563 13.3438 24.4164 13.3438 25.1074C13.3438 25.7984 13.904 26.3586 14.595 26.3586Z" fill="#06905E"/>
</svg>
