<svg width="61" height="60" viewBox="0 0 61 60" fill="none" xmlns="http://www.w3.org/2000/svg">
<path d="M30.9502 56.008C45.4549 56.008 57.2133 44.2496 57.2133 29.7448C57.2133 15.2401 45.4549 3.48169 30.9502 3.48169C16.4454 3.48169 4.68701 15.2401 4.68701 29.7448C4.68701 44.2496 16.4454 56.008 30.9502 56.008Z" fill="white"/>
<path d="M30.9503 30.9956C36.4759 30.9956 40.9553 26.5162 40.9553 20.9906C40.9553 15.465 36.4759 10.9856 30.9503 10.9856C25.4247 10.9856 20.9453 15.465 20.9453 20.9906C20.9453 26.5162 25.4247 30.9956 30.9503 30.9956Z" fill="#FDF0EA"/>
<path fill-rule="evenodd" clip-rule="evenodd" d="M51.3652 47.6587C46.9005 51.1655 37.467 56.4131 31.3552 56.4131C25.2434 56.4131 15.8099 51.1655 11.3452 47.6587C12.2494 39.5634 22.931 36.4031 31.3552 36.4031C39.7794 36.4031 50.461 39.5634 51.3652 47.6587Z" fill="#FDF0EA"/>
<path d="M5.20007 36.259C5.89035 36.259 6.44994 35.6994 6.44994 35.0092C6.44994 34.3189 5.89035 33.7593 5.20007 33.7593C4.50979 33.7593 3.9502 34.3189 3.9502 35.0092C3.9502 35.6994 4.50979 36.259 5.20007 36.259Z" fill="#06905E"/>
<path fill-rule="evenodd" clip-rule="evenodd" d="M9.64423 47.0434C7.79705 44.6747 6.33004 41.9972 5.3333 39.1007C5.10818 38.4479 5.45585 37.7363 6.10868 37.5112C6.76025 37.2873 7.4731 37.6337 7.69822 38.2865C8.43734 40.4351 9.46165 42.4511 10.7248 44.2895C15.7923 38.683 23.141 35.1525 31.3551 35.1525C39.5692 35.1525 46.9178 38.683 51.9854 44.2895C54.7492 40.2663 56.3676 35.3964 56.3676 30.15C56.3676 25.9391 55.3245 21.9696 53.4836 18.4866C53.1609 17.8763 53.3949 17.1185 54.0052 16.7958C54.6155 16.4744 55.3721 16.707 55.6947 17.3173C57.7207 21.1492 58.8688 25.5164 58.8688 30.15C58.8688 36.5182 56.7015 42.3836 53.0634 47.0472C53.0509 47.0647 53.0372 47.0822 53.0234 47.0985C47.9859 53.5292 40.1495 57.6637 31.3551 57.6637C22.5619 57.6637 14.7281 53.5304 9.68926 47.1022C9.67425 47.0834 9.65798 47.0634 9.64423 47.0434ZM50.4371 46.3143C45.8186 41.0117 38.9989 37.6537 31.3551 37.6537C23.7113 37.6537 16.8916 41.0117 12.273 46.3143C16.8628 51.7258 23.7113 55.1625 31.3551 55.1625C38.9989 55.1625 45.8473 51.7258 50.4371 46.3143ZM6.37004 31.3418C6.40255 32.0309 5.86983 32.6175 5.17949 32.65C4.49039 32.6825 3.90387 32.1485 3.8726 31.4594C3.85134 31.0254 3.84131 30.589 3.84131 30.15C3.84131 14.9649 16.17 2.63623 31.3551 2.63623C40.5084 2.63623 48.625 7.11598 53.6275 14.0007C54.0327 14.5597 53.9089 15.3426 53.3511 15.7478C52.7921 16.153 52.0091 16.0292 51.6039 15.4714C47.0554 9.21077 39.678 5.13748 31.3551 5.13748C17.5507 5.13748 6.34256 16.3456 6.34256 30.15C6.34256 30.5489 6.35253 30.9466 6.37004 31.3418ZM31.3551 10.14C37.5669 10.14 42.6107 15.1838 42.6107 21.3956C42.6107 27.6075 37.5669 32.6512 31.3551 32.6512C25.1432 32.6512 20.0995 27.6075 20.0995 21.3956C20.0995 15.1838 25.1432 10.14 31.3551 10.14ZM31.3551 12.6412C26.5239 12.6412 22.6007 16.5644 22.6007 21.3956C22.6007 26.2268 26.5239 30.15 31.3551 30.15C36.1862 30.15 40.1095 26.2268 40.1095 21.3956C40.1095 16.5644 36.1862 12.6412 31.3551 12.6412Z" fill="#06905E"/>
</svg>
