<svg width="61" height="60" viewBox="0 0 61 60" fill="none" xmlns="http://www.w3.org/2000/svg">
<path fill-rule="evenodd" clip-rule="evenodd" d="M10.2727 54.0755C7.2743 53.5678 4.98682 50.9552 4.98682 47.8125C4.98682 44.3065 7.83331 41.46 11.3393 41.46C14.8453 41.46 17.6918 44.3065 17.6918 47.8125C17.6918 50.9552 15.4043 53.5678 12.406 54.0755L11.3393 56.475L10.2727 54.0755Z" fill="#FDF0EA"/>
<path fill-rule="evenodd" clip-rule="evenodd" d="M50.0808 16.5755C47.0824 16.0678 44.7949 13.4552 44.7949 10.3125C44.7949 6.80646 47.6414 3.95996 51.1474 3.95996C54.6534 3.95996 57.4999 6.80646 57.4999 10.3125C57.4999 13.4552 55.2125 16.0678 52.2141 16.5755L51.1474 18.975L50.0808 16.5755Z" fill="#FDF0EA"/>
<path fill-rule="evenodd" clip-rule="evenodd" d="M9.38676 55.1623L10.1958 56.9831C10.3968 57.4347 10.845 57.7264 11.3393 57.7264C11.8337 57.7264 12.2818 57.4347 12.4828 56.9831L13.2918 55.1623C16.5432 54.3001 18.9433 51.3346 18.9433 47.8124C18.9433 43.6157 15.536 40.2085 11.3393 40.2085C7.1426 40.2085 3.73535 43.6157 3.73535 47.8124C3.73535 51.334 6.13543 54.2995 9.38676 55.1623ZM11.3393 53.4217C11.1522 53.1156 10.8403 52.9025 10.4817 52.8419C8.07354 52.4342 6.23823 50.3361 6.23823 47.8124C6.23823 44.9971 8.52398 42.7114 11.3393 42.7114C14.1546 42.7114 16.4404 44.9971 16.4404 47.8124C16.4404 50.3361 14.6051 52.4342 12.1969 52.8419C11.8383 52.9025 11.5264 53.1156 11.3393 53.4217Z" fill="#06905E"/>
<path fill-rule="evenodd" clip-rule="evenodd" d="M51.1474 15.9217C50.9603 15.6156 50.6485 15.4025 50.2898 15.3419C47.8817 14.9342 46.0464 12.8361 46.0464 10.3124C46.0464 7.49712 48.3321 5.21137 51.1474 5.21137C51.7405 5.21137 52.3099 5.31244 52.8401 5.49898C53.4915 5.72824 54.2064 5.38578 54.4357 4.73436C54.665 4.08294 54.3225 3.36799 53.6711 3.13815C52.8811 2.86037 52.0316 2.7085 51.1474 2.7085C46.9507 2.7085 43.5435 6.11574 43.5435 10.3124C43.5435 13.8346 45.9441 16.8001 49.1955 17.6629L50.004 19.4831C50.2049 19.9347 50.6531 20.2264 51.1474 20.2264C51.6418 20.2264 52.0899 19.9347 52.2909 19.4831L53.1 17.6623C56.3513 16.8001 58.7514 13.8346 58.7514 10.3124C58.7514 8.76127 58.2859 7.31867 57.4872 6.11516C57.1055 5.53997 56.3282 5.38232 55.753 5.76462C55.1778 6.14635 55.0201 6.92308 55.4019 7.49885C55.9372 8.30562 56.2485 9.27293 56.2485 10.3124C56.2485 12.8361 54.4132 14.9342 52.005 15.3419C51.6464 15.4025 51.3345 15.6156 51.1474 15.9217Z" fill="#06905E"/>
<path fill-rule="evenodd" clip-rule="evenodd" d="M20.144 57.5288H22.6452C23.3356 57.5288 23.8959 56.9685 23.8959 56.2782C23.8959 55.5878 23.3356 55.0275 22.6452 55.0275H20.144C19.4536 55.0275 18.8934 55.5878 18.8934 56.2782C18.8934 56.9685 19.4536 57.5288 20.144 57.5288ZM30.149 57.5288H39.5287C46.0907 57.5288 51.4096 52.2099 51.4096 45.6479C51.4096 42.4963 50.1578 39.4748 47.9304 37.2462C45.7018 35.0188 42.6803 33.7669 39.5287 33.7669C33.5732 33.7669 26.2633 33.7669 20.7693 33.7669C18.9446 33.7669 17.195 33.0428 15.9056 31.7522C14.615 30.4628 13.8909 28.7131 13.8909 26.8885C13.8909 25.0638 14.615 23.3142 15.9056 22.0248C17.195 20.7342 18.9446 20.01 20.7693 20.01H22.6452C23.3356 20.01 23.8959 19.4498 23.8959 18.7594C23.8959 18.0691 23.3356 17.5088 22.6452 17.5088H20.7693C18.2818 17.5088 15.8956 18.4968 14.1373 20.2564C12.3776 22.0148 11.3896 24.401 11.3896 26.8885C11.3896 29.376 12.3776 31.7622 14.1373 33.5205C15.8956 35.2802 18.2818 36.2682 20.7693 36.2682H39.5287C42.0162 36.2682 44.4023 37.2562 46.1607 39.0158C47.9203 40.7742 48.9084 43.1604 48.9084 45.6479C48.9084 50.8279 44.7088 55.0275 39.5287 55.0275H30.149C29.4586 55.0275 28.8984 55.5878 28.8984 56.2782C28.8984 56.9685 29.4586 57.5288 30.149 57.5288ZM26.3971 20.01H42.6552C43.3456 20.01 43.9059 19.4498 43.9059 18.7594C43.9059 18.0691 43.3456 17.5088 42.6552 17.5088H26.3971C25.7068 17.5088 25.1465 18.0691 25.1465 18.7594C25.1465 19.4498 25.7068 20.01 26.3971 20.01Z" fill="#06905E"/>
<path d="M25.9864 57.5249C26.6771 57.5249 27.2371 56.965 27.2371 56.2743C27.2371 55.5836 26.6771 55.0237 25.9864 55.0237C25.2957 55.0237 24.7358 55.5836 24.7358 56.2743C24.7358 56.965 25.2957 57.5249 25.9864 57.5249Z" fill="#06905E"/>
</svg>
