<svg width="61" height="60" viewBox="0 0 61 60" fill="none" xmlns="http://www.w3.org/2000/svg">
<path fill-rule="evenodd" clip-rule="evenodd" d="M27.5797 48.2901C17.0894 46.5142 9.08789 37.3733 9.08789 26.3791C9.08789 14.1142 19.0454 4.15674 31.3102 4.15674C43.5751 4.15674 53.5326 14.1142 53.5326 26.3791C53.5326 37.3733 45.5311 46.5142 35.0408 48.2901L31.3102 56.683L27.5797 48.2901ZM31.3102 18.2988C35.77 18.2988 39.3917 21.9194 39.3917 26.3791C39.3917 30.8388 35.77 34.4607 31.3102 34.4607C26.8505 34.4607 23.2287 30.8388 23.2287 26.3791C23.2287 21.9194 26.8505 18.2988 31.3102 18.2988Z" fill="#FDF0EA"/>
<path fill-rule="evenodd" clip-rule="evenodd" d="M36.8623 22.2517C37.6694 23.3733 38.1456 24.7499 38.1456 26.2368C38.1456 30.0081 35.0829 33.0709 31.3116 33.0709C27.5403 33.0709 24.4776 30.0081 24.4776 26.2368C24.4776 22.4656 27.5403 19.4028 31.3116 19.4028C32.4185 19.4028 33.4644 19.6667 34.3891 20.1349C35.005 20.4465 35.7591 20.1995 36.0707 19.5829C36.3824 18.967 36.1354 18.2136 35.5188 17.9019C34.2546 17.2618 32.825 16.9009 31.3116 16.9009C26.1585 16.9009 21.9756 21.0838 21.9756 26.2368C21.9756 31.3899 26.1585 35.5728 31.3116 35.5728C36.4647 35.5728 40.6476 31.3899 40.6476 26.2368C40.6476 24.2046 39.9971 22.323 38.8931 20.7898C38.4896 20.2289 37.7068 20.1018 37.1468 20.5053C36.586 20.9088 36.4588 21.6909 36.8623 22.2517Z" fill="#06905E"/>
<path fill-rule="evenodd" clip-rule="evenodd" d="M13.3478 37.2514C11.28 34.0022 10.0825 30.1472 10.0825 26.0156C10.0825 14.4466 19.4766 5.05243 31.0456 5.05243C42.6146 5.05243 52.0088 14.4466 52.0088 26.0156C52.0088 36.3871 44.4624 45.0098 34.5654 46.6839C34.1535 46.7545 33.8021 47.0252 33.6325 47.4088L31.0456 53.2287L28.4588 47.4088C28.2892 47.0252 27.9378 46.7545 27.5258 46.6839C24.1797 46.1184 21.1043 44.7574 18.4973 42.8047C17.946 42.3907 17.1604 42.5038 16.7465 43.055C16.3345 43.6084 16.4456 44.3919 16.9989 44.8059C19.7432 46.8616 22.954 48.3317 26.4435 49.0263C26.4415 49.0263 29.9027 56.8131 29.9027 56.8131C30.1046 57.2654 30.5509 57.5562 31.0456 57.5562C31.5404 57.5562 31.9867 57.2654 32.1886 56.8131L35.6498 49.0263C46.3969 46.8858 54.5087 37.3907 54.5087 26.0156C54.5087 13.0653 43.9959 2.55249 31.0456 2.55249C18.0954 2.55249 7.58252 13.0653 7.58252 26.0156C7.58252 30.642 8.92535 34.9574 11.2396 38.5943C11.6111 39.1759 12.3846 39.3475 12.9662 38.978C13.5477 38.6064 13.7194 37.833 13.3478 37.2514Z" fill="#06905E"/>
<path d="M14.7389 42.3469C15.4296 42.3469 15.9895 41.787 15.9895 41.0963C15.9895 40.4056 15.4296 39.8457 14.7389 39.8457C14.0482 39.8457 13.4883 40.4056 13.4883 41.0963C13.4883 41.787 14.0482 42.3469 14.7389 42.3469Z" fill="#06905E"/>
</svg>
